<?xml version="1.0" encoding="UTF-8"?>
<svg version="1.1" xmlns="http://www.w3.org/2000/svg" width="500" height="500">
<path d="M0 0 C0.70155433 -0.00367669 1.40310865 -0.00735338 2.1259222 -0.01114148 C4.47083716 -0.02213214 6.81570773 -0.02601433 9.16064453 -0.02983093 C10.84470255 -0.03609924 12.52875919 -0.04274636 14.21281433 -0.04974365 C19.7396855 -0.07074861 25.26655683 -0.08114499 30.79345703 -0.09111023 C32.70034804 -0.09515958 34.60723892 -0.09927656 36.51412964 -0.10346031 C45.47731986 -0.12250677 54.4405019 -0.13673708 63.40370846 -0.14507228 C73.72777777 -0.15483298 84.05163202 -0.18112427 94.37562561 -0.22157317 C102.3690712 -0.25180892 110.3624554 -0.26654834 118.35595703 -0.26985329 C123.12336786 -0.2721959 127.8905488 -0.28105259 132.65789795 -0.30631447 C137.1494013 -0.32973011 141.6405256 -0.33377467 146.13207436 -0.32355309 C147.77143941 -0.32306082 149.41082398 -0.3292888 151.05013084 -0.34310913 C163.73557536 -0.44398287 175.95638226 0.53668833 185.98486328 9.16670227 C194.89705232 18.29494438 197.37947746 28.22231556 197.30664062 40.67451477 C197.31452606 42.35192245 197.31452606 42.35192245 197.3225708 44.06321716 C197.33570841 47.73717978 197.32705449 51.41070446 197.31689453 55.08467102 C197.31891705 57.65099673 197.32182997 60.21732188 197.32559204 62.78364563 C197.33000697 68.15325445 197.32390007 73.52270054 197.30957031 78.89228821 C197.29324675 85.08002777 197.2985364 91.26747067 197.31504953 97.45520306 C197.33035925 103.43371323 197.32866848 109.41207953 197.31990433 115.39060974 C197.31790851 117.92306053 197.32033979 120.45551893 197.32734299 122.98796082 C197.33499397 126.53211791 197.32330139 130.07571191 197.30664062 133.61982727 C197.31271332 134.65801605 197.31878601 135.69620483 197.32504272 136.76585388 C197.23114454 147.59265006 194.33436146 155.22291831 186.91845703 163.14717102 C179.41917045 170.42018603 170.2149844 173.27624776 159.91845703 173.14717102 C159.9394043 174.21677063 159.96035156 175.28637024 159.98193359 176.38838196 C160.05440329 180.36155275 160.10028166 184.33466527 160.13818359 188.30830383 C160.15828331 190.02715381 160.18556792 191.74593554 160.22021484 193.46455383 C160.26880737 195.93705591 160.29144138 198.40865312 160.30908203 200.88154602 C160.32972717 201.64835693 160.35037231 202.41516785 160.37164307 203.20521545 C160.37311967 206.72631712 160.20920486 208.74950934 158.10327148 211.62983704 C154.84469919 213.89288618 152.80307679 213.72467064 148.91845703 213.14717102 C146.49084074 211.66081454 144.60049728 210.29710521 142.48095703 208.45967102 C141.88605469 207.96853821 141.29115234 207.4774054 140.67822266 206.97138977 C139.4051628 205.91909938 138.13788028 204.85978689 136.87597656 203.79414368 C134.25572343 201.5895755 131.59607285 199.43551856 128.93505859 197.2804718 C127.59016835 196.1912084 126.24706708 195.09973249 124.90576172 194.00605774 C119.29331 189.43006608 113.61337945 184.94468127 107.90673828 180.48701477 C105.22970976 178.39088394 102.57162293 176.27334397 99.91845703 174.14717102 C99.91259079 175.20237946 99.90672455 176.25758789 99.90068054 177.34477234 C99.84331305 187.31935049 99.77047867 197.29371356 99.68274212 207.26807213 C99.63813308 212.39523605 99.59885628 217.52232223 99.57202148 222.64961243 C99.54589384 227.60348619 99.5054251 232.5570593 99.45527077 237.510746 C99.43866582 239.39479947 99.42711206 241.27890487 99.42084312 243.16302109 C99.3689002 257.34722139 98.84175885 269.05529504 88.91845703 280.14717102 C79.45220984 288.09145974 69.94566921 290.33295881 57.87426758 290.14619446 C55.78318334 290.1234325 53.69209306 290.10122125 51.60099792 290.07948303 C50.49453604 290.06670067 49.38807415 290.0539183 48.24808311 290.0407486 C41.12387219 289.96997517 33.99924911 289.96394673 26.87474346 289.9468956 C20.62864866 289.92828687 14.38438645 289.88656833 8.13891602 289.79414368 C2.08293926 289.7058069 -3.97034984 289.68205162 -10.02690697 289.70052338 C-12.32207217 289.69625188 -14.61732295 289.66926895 -16.91192055 289.61804962 C-29.99249545 289.34040503 -39.13871356 289.92277995 -49.0189333 299.10226059 C-50.15801637 300.2230368 -51.28640853 301.35480069 -52.40289879 302.49808502 C-55.13405084 305.18114595 -58.16267948 307.45879287 -61.20654297 309.77217102 C-62.34561864 310.66014247 -63.48377347 311.54929766 -64.62060547 312.44013977 C-65.46606934 313.10022034 -65.46606934 313.10022034 -66.32861328 313.77363586 C-68.17591615 315.22111859 -70.01610657 316.67727905 -71.85498047 318.13545227 C-72.47872559 318.62900208 -73.1024707 319.12255188 -73.74511719 319.63105774 C-74.92777747 320.56718634 -76.10919342 321.50489021 -77.2890625 322.4445343 C-87.0621763 330.16444842 -87.0621763 330.16444842 -91.76904297 330.08467102 C-96.29731358 328.803085 -96.29731358 328.803085 -98.08154297 326.14717102 C-98.34313619 323.34727973 -98.43058635 320.77489173 -98.37451172 317.97920227 C-98.37026688 317.1843895 -98.36602203 316.38957672 -98.36164856 315.57067871 C-98.34486227 313.03333081 -98.30721121 310.49677864 -98.26904297 307.95967102 C-98.25399602 306.23897937 -98.24030763 304.51827526 -98.22802734 302.79756165 C-98.19495904 298.5804584 -98.14317792 294.3639496 -98.08154297 290.14717102 C-99.18385254 290.15635559 -100.28616211 290.16554016 -101.421875 290.17500305 C-111.10129283 290.1013904 -119.04549183 285.77516268 -126.05810547 279.33076477 C-133.85896109 271.11497002 -135.68337744 262.2882914 -135.59912109 251.2467804 C-135.60613037 250.10070816 -135.61313965 248.95463593 -135.62036133 247.77383423 C-135.63786263 244.01261141 -135.62634569 240.25215054 -135.61279297 236.49092102 C-135.61549012 233.86115882 -135.61937439 231.23139759 -135.62438965 228.60163879 C-135.63164232 223.10094561 -135.62214141 217.60046809 -135.60302734 212.09980774 C-135.58126291 205.76373493 -135.588316 199.42817718 -135.61033297 193.09211683 C-135.63075609 186.96674817 -135.62848785 180.84160568 -135.61680603 174.71621704 C-135.61414656 172.12318855 -135.61738092 169.53014681 -135.62672424 166.93713379 C-135.63693569 163.3069273 -135.62132268 159.67769592 -135.59912109 156.04756165 C-135.60721802 154.98648697 -135.61531494 153.92541229 -135.62365723 152.83218384 C-135.51236396 142.95942775 -132.85366897 135.17520153 -125.99169922 127.96357727 C-115.13811629 117.64268552 -104.55583116 116.69654197 -90.01123047 116.85420227 C-88.47853006 116.85980914 -86.9458242 116.86407407 -85.41311646 116.86706543 C-81.4116284 116.87842851 -77.41047572 116.9078202 -73.40911865 116.94117737 C-69.31299372 116.97206421 -65.21681371 116.98561023 -61.12060547 117.00068665 C-53.10743206 117.03269975 -45.09452943 117.08379033 -37.08154297 117.14717102 C-37.09042542 116.05659897 -37.09930786 114.96602692 -37.10845947 113.84240723 C-37.18979105 103.52987512 -37.24962593 93.21740869 -37.28879166 82.9046278 C-37.30960457 77.60358426 -37.33780658 72.30280108 -37.38330078 67.00190735 C-37.42698382 61.87958555 -37.45072735 56.7575131 -37.46105194 51.6350193 C-37.46840316 49.68751924 -37.48275777 47.74003175 -37.5044632 45.79263878 C-37.65712821 31.51898923 -37.12354095 20.19621859 -26.72216797 9.38154602 C-18.72618145 2.61571127 -10.28620647 0.03504667 0 0 Z M-17.45654297 19.33467102 C-18.08302734 19.86447571 -18.70951172 20.3942804 -19.35498047 20.94013977 C-24.38865593 27.37458917 -24.52058205 34.39151389 -24.4855957 42.20967102 C-24.49245895 43.29038879 -24.4993222 44.37110657 -24.50639343 45.48457336 C-24.52461917 49.03890813 -24.52083021 52.59279978 -24.51513672 56.14717102 C-24.5197001 58.62764122 -24.52500614 61.10811016 -24.53102112 63.58857727 C-24.53994363 68.78003587 -24.53753824 73.97134056 -24.52758789 79.16279602 C-24.51609189 85.80728335 -24.53632451 92.45123974 -24.56550503 99.09565735 C-24.58387067 104.21556457 -24.5835739 109.33534459 -24.57786751 114.45527649 C-24.57771438 116.90482834 -24.58375157 119.35438887 -24.59615898 121.8039093 C-24.61107558 125.23116684 -24.60038617 128.65744368 -24.58325195 132.08467102 C-24.59291992 133.09062317 -24.60258789 134.09657532 -24.61254883 135.13301086 C-24.53602643 142.46160731 -22.94937223 147.75308031 -18.18701172 153.38935852 C-17.55408203 153.92818665 -16.92115234 154.46701477 -16.26904297 155.02217102 C-15.33125 155.85361633 -15.33125 155.85361633 -14.37451172 156.70185852 C-8.15334585 160.62320669 -1.56689039 160.41484078 5.54443359 160.33906555 C7.11417183 160.33485847 7.11417183 160.33485847 8.71562195 160.33056641 C10.97999772 160.32408642 13.24436472 160.31352008 15.50870514 160.29930496 C19.09973099 160.27976231 22.6903597 160.27764672 26.28143311 160.28117371 C36.48891439 160.29084344 46.69600586 160.29130994 56.90332031 160.22627258 C63.15571842 160.18770522 69.40708764 160.18821737 75.65953827 160.21384811 C78.03406482 160.21625466 80.40865342 160.20426782 82.78302765 160.17726517 C105.23828241 159.93232322 105.23828241 159.93232322 112.95957947 167.09225464 C113.60600906 167.77037704 114.25243866 168.44849945 114.91845703 169.14717102 C116.33866309 170.31597464 117.77033721 171.47116526 119.21923828 172.60420227 C120.55877567 173.7199389 121.89600409 174.83845325 123.23095703 175.95967102 C128.74497503 180.54347867 134.28633354 185.08396067 139.91845703 189.52217102 C140.51182861 189.99243713 141.1052002 190.46270325 141.71655273 190.94721985 C144.06120169 193.16916257 144.06120169 193.16916257 146.91845703 194.14717102 C146.92256592 193.32515198 146.9266748 192.50313293 146.9309082 191.65620422 C146.96384946 187.9233006 147.03449807 184.19202769 147.10595703 180.45967102 C147.1146582 178.51930969 147.1146582 178.51930969 147.12353516 176.53974915 C147.15253906 175.29258118 147.18154297 174.04541321 147.21142578 172.76045227 C147.22713623 171.61358948 147.24284668 170.46672668 147.2590332 169.28511047 C148.11415077 165.21594124 149.70768008 163.7118055 152.91845703 161.14717102 C156.40673828 160.36201477 156.40673828 160.36201477 160.23095703 160.08467102 C169.32356044 159.1812428 174.8095037 157.10795003 180.69189453 150.02607727 C184.39493201 144.35358993 184.22054112 139.03319389 184.22485352 132.45698547 C184.23733879 130.84138481 184.23733879 130.84138481 184.25007629 129.19314575 C184.27417175 125.63221112 184.28294882 122.07145979 184.28955078 118.51045227 C184.29851878 116.03048651 184.30764066 113.5505213 184.31690979 111.07055664 C184.33340206 105.86960028 184.34110012 100.6687083 184.34399414 95.46772766 C184.34937221 88.81769084 184.38702845 82.16827839 184.4327383 75.51838398 C184.46254946 70.39411231 184.46971863 65.26998644 184.47072029 60.1456356 C184.47491595 57.69492497 184.48732372 55.24421363 184.50823784 52.79358864 C184.53522918 49.35671993 184.53030197 45.9212514 184.51782227 42.48432922 C184.53265656 41.48085449 184.54749084 40.47737976 184.56277466 39.4434967 C184.47967462 31.36719302 182.28694982 24.51566381 176.48095703 18.70967102 C169.48749998 14.44536794 164.1983774 13.026705 156.03778076 13.00672913 C155.35790549 13.003758 154.67803021 13.00078688 153.97755265 12.99772573 C151.70621391 12.98907496 149.43492811 12.98753356 147.16357422 12.98603821 C145.53213896 12.98140746 143.90070478 12.97638246 142.26927185 12.97099304 C137.8414193 12.95789166 133.4135819 12.95142849 128.98571301 12.94698238 C126.21718073 12.94404798 123.44865257 12.93994247 120.68012238 12.93547821 C112.01167055 12.92180918 103.34322815 12.91213964 94.6747663 12.90827632 C84.6800973 12.90379702 74.68556515 12.88625259 64.69093776 12.85727572 C56.95742411 12.83563533 49.22394891 12.82557078 41.49040532 12.8242352 C36.87519009 12.82318886 32.26010361 12.81731737 27.64492035 12.79941559 C23.30121211 12.78289412 18.95772885 12.78079911 14.61400032 12.7895546 C13.02456368 12.79032279 11.43511475 12.78601102 9.84570885 12.77609634 C-4.80915065 12.58153225 -4.80915065 12.58153225 -17.45654297 19.33467102 Z M-115.51904297 136.14717102 C-116.03466797 136.80717102 -116.55029297 137.46717102 -117.08154297 138.14717102 C-117.61779297 138.80717102 -118.15404297 139.46717102 -118.70654297 140.14717102 C-121.21545922 143.79650375 -122.33086326 146.43709908 -122.34896851 150.90223694 C-122.35749847 151.85538788 -122.36602844 152.80853882 -122.37481689 153.79057312 C-122.37391052 154.82960785 -122.37300415 155.86864258 -122.37207031 156.93916321 C-122.37878754 158.03880402 -122.38550476 159.13844482 -122.39242554 160.27140808 C-122.41144697 163.91233318 -122.41533209 167.5530743 -122.41748047 171.19404602 C-122.42390632 173.725073 -122.43063452 176.25609923 -122.43765259 178.78712463 C-122.44963632 184.09661378 -122.45341799 189.40603434 -122.45214844 194.7155304 C-122.45094849 200.83904358 -122.47202177 206.96220347 -122.50363576 213.08562732 C-122.53301934 218.98881411 -122.54012231 224.89189386 -122.53892899 230.79515839 C-122.54128672 233.30053905 -122.55011987 235.80592242 -122.56559372 238.31125641 C-122.58523448 241.82033385 -122.5794218 245.32850808 -122.56738281 248.83760071 C-122.57862183 249.86853851 -122.58986084 250.89947632 -122.60144043 251.96165466 C-122.53696331 259.37420083 -121.00528737 264.68690445 -116.18701172 270.38935852 C-109.13108979 276.39623299 -102.96662356 277.34301505 -93.85107422 277.70576477 C-90.72654681 278.2037501 -89.33495764 278.95591951 -87.08154297 281.14717102 C-86.02317636 284.32227084 -85.87910508 286.78999485 -85.76513672 290.12763977 C-85.72324219 291.29101868 -85.68134766 292.45439758 -85.63818359 293.6530304 C-85.59886719 294.8679718 -85.55955078 296.08291321 -85.51904297 297.33467102 C-85.45426758 299.17448547 -85.45426758 299.17448547 -85.38818359 301.0514679 C-85.28201207 304.08325483 -85.17996344 307.11512417 -85.08154297 310.14717102 C-82.31498879 308.85608721 -80.0319223 307.44069062 -77.68310547 305.49482727 C-76.72694336 304.70894226 -76.72694336 304.70894226 -75.75146484 303.90718079 C-75.07664063 303.34700256 -74.40181641 302.78682434 -73.70654297 302.20967102 C-72.27238778 301.0316854 -70.8374775 299.85461854 -69.40185547 298.67842102 C-68.31952637 297.79090149 -68.31952637 297.79090149 -67.21533203 296.88545227 C-64.03148163 294.29174348 -60.81231401 291.74456308 -57.58154297 289.20967102 C-57.04352051 288.78629456 -56.50549805 288.36291809 -55.95117188 287.92671204 C-54.92166579 287.12016538 -53.88612263 286.32124272 -52.84363651 285.53154469 C-51.65832577 284.60031548 -50.50625697 283.62533598 -49.38978481 282.61259747 C-43.82617236 277.83986737 -39.48998192 277.29730043 -32.31030273 277.42182922 C-31.26045197 277.41601837 -30.2106012 277.41020752 -29.12893677 277.40422058 C-25.67637111 277.39146664 -22.22540443 277.42008975 -18.77294922 277.44795227 C-16.36213039 277.44431627 -13.95131441 277.43761122 -11.54051208 277.42797852 C-5.20300315 277.40892757 1.13395725 277.42292357 7.47143555 277.44648743 C17.61040954 277.48089787 27.74924677 277.47502988 37.88823128 277.45035362 C41.42075077 277.44798994 44.95275898 277.46575895 48.48521423 277.48562622 C50.66275027 277.48587448 52.84028651 277.48547616 55.01782227 277.48432922 C55.99212692 277.49519058 56.96643158 277.50605194 57.97026062 277.51724243 C65.30572406 277.48633933 72.25159119 276.44327395 78.23095703 271.89717102 C84.7282616 265.24876635 86.07368943 258.9437354 86.03198242 249.89033508 C86.03220146 248.64587868 86.03220146 248.64587868 86.03242493 247.37628174 C86.03172915 244.63842642 86.02395242 241.90063943 86.01611328 239.16279602 C86.01424791 237.26279233 86.01282457 235.36278816 86.01182556 233.46278381 C86.00800976 228.46508961 85.99818745 223.46742453 85.98712158 218.46974182 C85.97688734 213.36873264 85.97232362 208.26771876 85.96728516 203.16670227 C85.95656436 193.16017907 85.93949915 183.15367747 85.91845703 173.14717102 C84.77555206 173.14130478 83.63264709 173.13543854 82.45510864 173.12939453 C71.65643696 173.07205006 60.85796439 172.99922738 50.05949593 172.91145611 C44.50859163 172.86682957 38.95775943 172.82755645 33.40673828 172.80073547 C28.04439364 172.77462553 22.68232757 172.73416882 17.3201561 172.68398476 C15.27979893 172.66736797 13.23939364 172.65582152 11.19897842 172.64955711 C8.329299 172.63985942 5.460324 172.61173297 2.59082031 172.57954407 C1.34032143 172.5816967 1.34032143 172.5816967 0.06455994 172.58389282 C-10.83339144 172.41229108 -19.71531118 168.80446831 -27.83544922 161.58857727 C-34.34243548 154.78804276 -36.22449627 146.44030435 -36.68701172 137.27217102 C-36.7471344 136.23963196 -36.7471344 136.23963196 -36.80847168 135.18623352 C-36.90541369 133.50687719 -36.99431591 131.82705996 -37.08154297 130.14717102 C-45.51411042 130.05408444 -53.94645964 129.98321179 -62.37941551 129.93992233 C-66.29609836 129.91913511 -70.21242712 129.8909823 -74.12890625 129.84541321 C-77.91555843 129.80163537 -81.70187217 129.77796742 -85.48875809 129.76766205 C-86.92633001 129.76032743 -88.36388548 129.74600603 -89.80131149 129.72425079 C-99.23517421 129.58727769 -107.92641077 129.91731896 -115.51904297 136.14717102 Z " fill="#000000" transform="translate(219.08154296875,84.85282897949219)"/>
<path d="M0 0 C6.66245418 4.13786433 10.13966657 8.99454698 12.51953125 16.47265625 C13.7552389 22.38291588 13.18835536 27.76430609 10.36328125 33.125 C6.22982427 38.98073073 1.06035042 43.01725695 -4.58203125 47.34765625 C-10.16318341 52.10582495 -10.45389016 56.10070077 -11.1640625 63.21875 C-11.99833283 66.79032893 -13.02105655 68.08424678 -15.88671875 70.3125 C-18.38671875 70.8125 -18.38671875 70.8125 -20.88671875 70.3125 C-23.54606034 68.2104469 -24.74730389 67.01162453 -25.41796875 63.6484375 C-25.30947921 53.36905325 -22.99150198 45.77162617 -15.890625 38.1953125 C-13.05257717 35.52876464 -10.03697325 33.1625999 -6.90234375 30.85546875 C-5.02666597 29.41963014 -3.38217928 28.14131397 -1.88671875 26.3125 C-1.36516912 21.69306044 -1.21700173 19.45349936 -3.57421875 15.4375 C-8.1589391 11.22451373 -12.40402253 10.93363798 -18.44140625 11.05078125 C-21.75653361 11.4055952 -24.12703169 12.47270863 -26.88671875 14.3125 C-28.50525906 17.54958061 -28.22910498 21.10544885 -28.41015625 24.68359375 C-28.94634812 27.64143908 -29.44893085 28.60037919 -31.88671875 30.3125 C-37.90541034 31.06483645 -37.90541034 31.06483645 -40.76171875 28.875 C-43.55462918 22.51337069 -43.20939526 16.92343751 -40.96875 10.453125 C-33.58468801 -4.1550554 -13.73523277 -6.64831435 0 0 Z " fill="#000000" transform="translate(313.88671875,122.6875)"/>
<path d="M0 0 C3.85332496 1.45570054 4.76144392 2.4831285 6.5 6.25 C7.11367492 10.85256188 6.33740881 13.02640503 4 17 C1.51759647 19.03911719 -0.20651298 19.02252869 -3.4375 19.375 C-7.71508327 18.92472808 -9.21722081 18.27385787 -12 15 C-13.35705063 10.9874861 -13.44337533 8.01976326 -11.75 4.125 C-8.1848005 -0.20417082 -5.39444547 -0.4650384 0 0 Z " fill="#000000" transform="translate(161,279)"/>
<path d="M0 0 C3.7774771 1.81878527 5.5661529 2.8515812 7.0625 6.8125 C6.98278305 10.87806444 5.97462374 13.45929536 4 17 C1.51759647 19.03911719 -0.20651298 19.02252869 -3.4375 19.375 C-7.74688266 18.92138077 -9.23149791 18.33848781 -12 15 C-12.97499943 11.94386143 -13.30759211 9.19554026 -13 6 C-9.51882885 0.23806155 -6.57673636 -0.54806136 0 0 Z " fill="#000000" transform="translate(204,279)"/>
<path d="M0 0 C4.6 2.2 4.6 2.2 6 5 C6.51968957 9.4131016 6.85380637 12.86159151 4.125 16.5 C0.27243733 19.219456 -2.26173877 19.40154756 -7 19 C-9.875 17.5625 -9.875 17.5625 -12 15 C-12.97499943 11.94386143 -13.30759211 9.19554026 -13 6 C-9.4935259 0.19618081 -6.59747889 -0.4472867 0 0 Z " fill="#000000" transform="translate(247,279)"/>
<path d="M0 0 C2.5 1.5 2.5 1.5 4 4 C4.791013 8.02098277 4.62153384 10.96411027 2.5 14.5 C-1.03588973 16.62153384 -3.97901723 16.791013 -8 16 C-10.5 14.5 -10.5 14.5 -12 12 C-12.791013 7.97901723 -12.62153384 5.03588973 -10.5 1.5 C-6.96411027 -0.62153384 -4.02098277 -0.791013 0 0 Z " fill="#000000" transform="translate(300,201)"/>
<path d="M0 0 C1.299375 0.00451172 2.59875 0.00902344 3.9375 0.01367188 C7.12504825 0.0253908 10.31249955 0.04179781 13.5 0.0625 C13.5 1.3825 13.5 2.7025 13.5 4.0625 C8.84785065 4.80984361 4.40132058 5.18186092 -0.30859375 5.16015625 C-1.54931641 5.15693359 -2.79003906 5.15371094 -4.06835938 5.15039062 C-5.34517578 5.14201172 -6.62199219 5.13363281 -7.9375 5.125 C-9.89333008 5.11823242 -9.89333008 5.11823242 -11.88867188 5.11132812 C-15.09249552 5.09959251 -18.29622363 5.08317363 -21.5 5.0625 C-21.83 3.7425 -22.16 2.4225 -22.5 1.0625 C-15.00009325 -0.14013656 -7.5817215 -0.05008251 0 0 Z " fill="#FFFFFF" transform="translate(486.5,494.9375)"/>
</svg>
