<svg xmlns="http://www.w3.org/2000/svg" fill="none" viewBox="-1.5 -1.5 48 48" id="Navigation-Arrow-East--Streamline-Core.svg" height="48" width="48"><desc>Navigation Arrow East Streamline Icon: https://streamlinehq.com</desc><g id="navigation-arrow-east--compass-arrow-map-bearing-navigation-maps-heading-gps-right"><path id="Vector 3969" stroke="#ff8920" stroke-linecap="round" stroke-linejoin="round" d="m6.010649999999999 4.992846428571428 34.30645714285714 15.247285714285713C41.21003571428571 20.637064285714285 41.785714285714285 21.522696428571425 41.785714285714285 22.499999999999996s-0.5756785714285714 1.8629357142857141 -1.4686071428571426 2.259867857142857L6.010649999999999 40.00725c-0.25428214285714285 0.11282142857142856 -0.5294249999999999 0.17132142857142854 -0.8076857142857142 0.17132142857142854C4.104642857142856 40.17857142857142 3.214285714285714 39.28821428571428 3.214285714285714 38.18989285714285l0 -0.0999642857142857c0 -0.2134285714285714 0.03268928571428571 -0.4255714285714285 0.09694285714285714 -0.6290357142857143l4.418839285714285 -13.992974999999998c0.19893214285714284 -0.6299357142857142 0.19893214285714284 -1.3058999999999998 0 -1.935835714285714L3.311228571428571 7.539171428571428C3.2469749999999995 7.335674999999999 3.214285714285714 7.123564285714284 3.214285714285714 6.910167857142857l0 -0.10006071428571428c0 -1.0983214285714284 0.8903571428571428 -1.9886785714285713 1.9886785714285713 -1.9886785714285713 0.27826071428571425 0 0.5534035714285713 0.058403571428571416 0.8076857142857142 0.17141785714285712Z" stroke-width="3"></path></g></svg>