<?xml version="1.0" encoding="UTF-8"?>
<svg version="1.1" xmlns="http://www.w3.org/2000/svg" width="483" height="475">
<path d="M0 0 C1.51451769 -0.00913666 1.51451769 -0.00913666 3.05963171 -0.01845789 C6.4294677 -0.03505367 9.7989244 -0.0303168 13.16879272 -0.0255127 C15.59058015 -0.03285515 18.01236408 -0.0414419 20.43414307 -0.05117798 C26.32262191 -0.07108261 32.21100893 -0.07677529 38.0995117 -0.07499009 C42.89040288 -0.07367977 47.68126347 -0.07750039 52.4721489 -0.08491516 C53.8549755 -0.0870145 55.23780211 -0.0891121 56.62062871 -0.09120798 C57.65323991 -0.09277327 57.65323991 -0.09277327 58.70671193 -0.09437019 C71.71492121 -0.11325594 84.72307404 -0.112228 97.73129134 -0.10540086 C109.60688932 -0.09983144 121.48227117 -0.12062803 133.35781868 -0.15376133 C145.57359215 -0.18757712 157.78926234 -0.20265655 170.00508344 -0.1980443 C176.8544172 -0.19580693 183.70355144 -0.20093419 190.552845 -0.22593689 C196.99947521 -0.24927045 203.44577105 -0.24627165 209.89241409 -0.22600937 C212.25055289 -0.22261041 214.6087222 -0.22763995 216.96681976 -0.24199295 C236.02041295 -0.3499075 249.75074972 1.80498734 264.48275757 14.97253418 C273.63232933 24.50735106 278.03309967 38.13505734 277.97782898 51.05244446 C277.98165453 52.00692103 277.98548007 52.96139759 277.98942155 53.94479769 C277.99971561 57.13354306 277.99576618 60.32210715 277.99179077 63.51086426 C277.99613926 65.80106268 278.00132287 68.09125966 278.00727844 70.38145447 C278.02066577 76.59640562 278.02124733 82.81129595 278.01871514 89.02625871 C278.01764513 94.21752305 278.02252966 99.40877509 278.02732056 104.6000368 C278.03904931 117.54984635 278.03819122 130.49961712 278.03176375 143.44942834 C278.02659697 154.6810853 278.03784495 165.91265546 278.05686197 177.14429525 C278.07626183 188.69104314 278.08420143 200.23773973 278.08073872 211.78450507 C278.07892698 218.2614407 278.08155118 224.73829685 278.09545326 231.2152195 C278.10804148 237.30802111 278.1060779 243.40064927 278.09304237 249.49344826 C278.09067913 251.72587137 278.09340222 253.95830672 278.1016655 256.19071579 C278.11215591 259.24581816 278.10401355 262.300341 278.09135437 265.35542297 C278.09872865 266.23200162 278.10610294 267.10858027 278.11370069 268.01172191 C277.9944608 281.75666778 272.06052203 293.53455095 262.71713257 303.39440918 C251.95583974 312.75625137 241.34002737 316.53640506 227.30201721 316.55503845 C225.8730904 316.56267018 225.8730904 316.56267018 224.41529638 316.57045609 C221.22058108 316.586162 218.02588839 316.59470088 214.83114624 316.60314941 C212.54112607 316.61268964 210.25110734 316.62258088 207.96109009 316.63279724 C200.43577787 316.6641719 192.91045466 316.68445237 185.38510132 316.70300293 C184.10345289 316.70630025 182.82180447 316.70959757 181.50131822 316.71299481 C169.40584977 316.74378244 157.31038073 316.77064206 145.21488476 316.7874136 C142.41525959 316.79136262 139.61563451 316.79536567 136.81600952 316.79943848 C135.77235453 316.80095102 135.77235453 316.80095102 134.70761559 316.80249412 C123.45717708 316.81947124 112.20695966 316.86054919 100.95662888 316.91146147 C89.38506288 316.96339296 77.81362206 316.99189491 66.24194127 316.99961048 C59.75346872 317.0045537 53.26538902 317.01950826 46.77702904 317.05935478 C40.66442098 317.09639808 34.55242725 317.10457255 28.43972778 317.09134865 C26.20657702 317.09140231 23.97339779 317.10157946 21.74035072 317.12310028 C6.09762756 317.26569125 -8.89346572 316.21086172 -21.26333618 305.42565918 C-32.77312065 293.84908679 -38.38131937 282.32822802 -38.52114868 266.07800293 C-38.5332563 264.73778831 -38.5332563 264.73778831 -38.54560852 263.37049866 C-38.55940046 261.48696813 -38.57014434 259.60341313 -38.57803345 257.71984863 C-38.58960063 255.7926909 -38.61012636 253.86556635 -38.63955688 251.93859863 C-38.68210601 249.15151239 -38.69837978 246.36537303 -38.70864868 243.57800293 C-38.72615677 242.71750839 -38.74366486 241.85701385 -38.76170349 240.97044373 C-38.73998271 234.9981253 -38.73998271 234.9981253 -36.3812561 231.88293457 C-32.49202107 229.12404382 -28.97338549 228.72048417 -24.28286743 229.39440918 C-21.47283283 231.18804829 -19.77346275 232.41321853 -18.28286743 235.39440918 C-18.16248115 237.82897018 -18.09726382 240.23983184 -18.07192993 242.67565918 C-18.04382509 244.17306526 -18.01516047 245.67046093 -17.98599243 247.16784668 C-17.9450223 249.51972757 -17.90812767 251.87142153 -17.88150024 254.22351074 C-17.71835235 272.0860284 -17.71835235 272.0860284 -8.68130493 286.98425293 C-0.78464499 294.09820429 6.43756278 295.54692628 16.73051453 295.52812195 C17.6397743 295.5303875 18.54903407 295.53265306 19.48584718 295.53498727 C22.5334142 295.54131867 25.58093665 295.54049845 28.62850952 295.53967285 C30.81328387 295.54266489 32.99805769 295.54606752 35.18283081 295.54985046 C41.11883581 295.55869034 47.05482639 295.56102858 52.99083734 295.56166625 C57.94608023 295.56261563 62.90131976 295.56629428 67.85656136 295.56983835 C78.88011115 295.57751768 89.90365421 295.58050697 100.92720649 295.57983299 C101.91896331 295.57977306 101.91896331 295.57977306 102.93075562 295.57971191 C103.92372727 295.57965059 103.92372727 295.57965059 104.93675896 295.57958803 C114.99531811 295.57920695 125.05384622 295.58700211 135.11239624 295.60021973 C146.79941071 295.61552452 158.48640225 295.62397805 170.17342728 295.6232565 C176.35744339 295.62300154 182.54141975 295.62585214 188.72542763 295.63643456 C194.54238213 295.64611693 200.35925889 295.6461937 206.17621613 295.63891792 C208.30949962 295.63787225 210.44278796 295.64023395 212.57606316 295.64627838 C215.49173327 295.65400364 218.40713528 295.64934984 221.32279968 295.64164734 C222.58425189 295.64936268 222.58425189 295.64936268 223.87118798 295.65723389 C233.18356428 295.60299956 240.48205137 293.42364351 247.71713257 287.39440918 C254.51209686 280.51081492 257.02018154 271.90549633 257.12302488 262.37994498 C257.11400981 261.14708958 257.11400981 261.14708958 257.10481262 259.889328 C257.11019816 258.98749104 257.1155837 258.08565407 257.12113243 257.15648872 C257.13532967 254.1636313 257.1283287 251.17122135 257.1211853 248.17834473 C257.12689323 246.02064664 257.13385913 243.86295157 257.14198303 241.70526123 C257.15988428 235.86421396 257.15875153 230.02331717 257.15304065 224.18225074 C257.14994392 219.29680806 257.15604675 214.41139408 257.16207939 209.5259555 C257.17611353 197.994859 257.174573 186.4638366 257.16317749 174.93273926 C257.15170173 163.05845371 257.16576553 151.18439417 257.19257396 139.3101384 C257.21476677 129.09578926 257.22136013 118.88151088 257.21549755 108.66713935 C257.21213484 102.57521992 257.21449735 96.48344528 257.23174858 90.39154625 C257.24727228 84.65978015 257.2432019 78.92834742 257.22444344 73.19659424 C257.22077234 71.10088474 257.2238225 69.00515025 257.23432922 66.90946388 C257.559325 46.42340622 257.559325 46.42340622 247.77963257 29.04675293 C239.55308937 22.45617003 231.38334486 21.24515035 221.20349121 21.24723816 C220.24043969 21.24356147 219.27738817 21.23988478 218.28515327 21.23609668 C215.05560581 21.22507662 211.82609054 21.22121889 208.5965271 21.21740723 C206.28205259 21.21114148 203.96757909 21.20449458 201.65310669 21.19749451 C194.05205992 21.17647103 186.45101298 21.1660961 178.84994507 21.15612793 C176.2334174 21.15208022 173.61688984 21.1479633 171.0003624 21.14377785 C160.11938554 21.12691417 149.23841158 21.11227777 138.35742378 21.10502911 C135.53640873 21.10311932 132.71539368 21.10119896 129.89437866 21.09924316 C129.19325726 21.09875942 128.49213585 21.09827568 127.76976834 21.09777728 C116.40661131 21.08947306 105.04355941 21.06412628 93.68044831 21.03166249 C82.00835411 20.99858818 70.3363188 20.98091295 58.66417778 20.97738487 C52.11293308 20.97503199 45.56185479 20.96603987 39.01065445 20.94092369 C32.84974164 20.91768434 26.68910533 20.91339323 20.5281601 20.92368507 C18.26705634 20.92418149 16.00593916 20.91783002 13.74487686 20.90412903 C10.65783216 20.88646924 7.57178618 20.89348761 4.48474121 20.90666199 C3.5902779 20.89569274 2.69581459 20.8847235 1.77424634 20.87342185 C-4.07987414 20.93373096 -7.46789508 22.01901733 -12.28286743 25.39440918 C-16.92037801 30.39803902 -17.42620882 34.35236897 -17.49380493 40.94909668 C-17.52187377 42.46603455 -17.55053824 43.98296149 -17.57974243 45.49987793 C-17.62097747 47.88512868 -17.6578759 50.27017547 -17.68423462 52.65563965 C-17.71191546 54.96221728 -17.7577823 57.26787572 -17.80630493 59.57409668 C-17.8095578 60.28258759 -17.81281067 60.99107849 -17.81616211 61.72103882 C-17.92436533 66.10132865 -18.62393481 68.89205169 -21.28286743 72.39440918 C-24.16885892 74.38739921 -26.32719121 74.65735814 -29.78286743 74.33190918 C-30.53567993 74.27905762 -31.28849243 74.22620605 -32.06411743 74.17175293 C-35.39756416 73.00387283 -36.40569888 71.37368855 -38.28286743 68.39440918 C-38.86178864 65.42865857 -38.84396506 62.52224557 -38.81411743 59.50769043 C-38.81794434 58.65064011 -38.82177124 57.79358978 -38.82571411 56.91056824 C-38.82843053 55.09926172 -38.82108819 53.2879158 -38.80435181 51.47668457 C-38.78306865 48.73285055 -38.804093 45.9916742 -38.82974243 43.2479248 C-38.85813524 26.14062366 -38.85813524 26.14062366 -34.28286743 18.39440918 C-33.75306274 17.49206543 -33.22325806 16.58972168 -32.67739868 15.66003418 C-24.0979634 4.72919812 -13.75614579 -0.07863052 0 0 Z " fill="#050505" transform="translate(117.28286743164063,83.6055908203125)"/>
<path d="M0 0 C4.24232919 2.5366793 7.71844163 5.44786419 11.23925781 8.90112305 C11.72459991 9.37492905 12.20994202 9.84873505 12.70999146 10.3368988 C14.29666559 11.88955999 15.87560132 13.44976438 17.453125 15.01171875 C18.26856907 15.81680846 18.26856907 15.81680846 19.10048676 16.63816261 C21.9743555 19.47633062 24.84213195 22.32049384 27.70507812 25.16967773 C30.65109471 28.09912081 33.6174768 31.00700047 36.58903885 33.9104948 C38.88283546 36.15939281 41.16077017 38.42386726 43.43477631 40.69275856 C44.52132687 41.77144867 45.61371501 42.84429357 46.71213531 43.91089439 C56.95043804 53.87177308 56.95043804 53.87177308 58.23944092 60.85578918 C57.60057644 66.576867 53.95465723 70.42043333 50.04125977 74.33105469 C49.54981476 74.82615036 49.05836975 75.32124603 48.55203247 75.8313446 C46.93910888 77.45231953 45.31566037 79.06225999 43.69140625 80.671875 C42.56133254 81.80142958 41.43177804 82.93150383 40.30271912 84.06207275 C37.94112099 86.42358141 35.57446291 88.77985853 33.20385742 91.13232422 C30.16785695 94.14559953 27.1430957 97.16986449 24.12181187 100.19788742 C21.79304819 102.52999392 19.45932236 104.8570815 17.12397575 107.1825943 C16.00670458 108.29602155 14.89077238 109.4107941 13.77621651 110.52693939 C12.21839674 112.08513052 10.65423084 113.63665659 9.08813477 115.18652344 C8.2000563 116.06999451 7.31197784 116.95346558 6.39698792 117.8637085 C3.09361339 120.807808 1.00709825 121.86945023 -3.375 122.4375 C-8.11973172 121.86485997 -9.86582008 120.58191991 -13 117 C-14.06289689 114.24664477 -14.51643497 111.91416878 -14 109 C-10.94821353 103.81990691 -7.0966535 99.83432035 -2.828125 95.6328125 C-2.1457074 94.95322479 -1.46328979 94.27363708 -0.76019287 93.57345581 C1.40519349 91.41920055 3.57745386 89.27203208 5.75 87.125 C7.22572108 85.65931784 8.70098646 84.19317671 10.17578125 82.7265625 C13.77860194 79.14570834 17.38760116 75.57119036 21 72 C20.22639539 71.99853344 19.45279078 71.99706688 18.6557436 71.99555588 C-0.16455014 71.95851021 -18.98465792 71.89952533 -37.8048048 71.81609726 C-46.90608709 71.77628158 -56.00728259 71.74390196 -65.10864258 71.72900391 C-73.04105487 71.71600047 -80.97327642 71.68906938 -88.9055813 71.64538693 C-93.10603234 71.62274255 -97.30624786 71.60709109 -101.50676537 71.60811615 C-105.46067681 71.60886102 -109.41406703 71.59098062 -113.36784363 71.55883217 C-114.81863338 71.55031541 -116.26948148 71.54859531 -117.72028542 71.55419731 C-119.70227509 71.56083082 -121.68430024 71.54056745 -123.66618347 71.51898193 C-124.77510043 71.51529476 -125.88401739 71.51160759 -127.0265379 71.50780869 C-130.68439952 70.88311806 -132.35669855 69.55293241 -135 67 C-136.72370774 63.55258453 -136.50306672 59.76964661 -136 56 C-134.12379387 53.49839182 -132.76108697 52.38054348 -130 51 C-128.01110119 50.89410242 -126.01862951 50.85334196 -124.02694702 50.84178162 C-122.75366043 50.8319928 -121.48037384 50.82220398 -120.16850281 50.81211853 C-118.74954261 50.80621395 -117.33058202 50.80040353 -115.91162109 50.79467773 C-114.42365749 50.78510188 -112.93569663 50.77509198 -111.44773865 50.76467896 C-107.40048297 50.73759206 -103.35321559 50.71660303 -99.30591917 50.69667697 C-95.07913792 50.67484072 -90.85239291 50.6474405 -86.62564087 50.62062073 C-78.61817707 50.57066185 -70.6106932 50.5257349 -62.60319006 50.48259836 C-53.48842018 50.43325326 -44.37368665 50.37832504 -35.2589519 50.32291877 C-16.50600167 50.20904969 2.24698285 50.1022214 21 50 C20.59101471 49.59545593 20.18202942 49.19091187 19.76065063 48.77410889 C15.50463277 44.56234066 11.25567341 40.34354679 7.01074219 36.12060547 C5.42562878 34.54554906 3.83872488 32.97229243 2.25 31.40087891 C-0.03338238 29.14175746 -2.31024598 26.87624029 -4.5859375 24.609375 C-5.29744965 23.90818542 -6.00896179 23.20699585 -6.74203491 22.48455811 C-7.73283554 21.49398407 -7.73283554 21.49398407 -8.74365234 20.48339844 C-9.32545258 19.90603943 -9.90725281 19.32868042 -10.50668335 18.73382568 C-13.35994577 15.4210255 -14 13.49959994 -14 9.0625 C-13.44006701 5.57919595 -12.86356231 4.84407121 -10.375 2 C-6.40424436 -0.35304038 -4.53806072 -0.72933119 0 0 Z " fill="#0A0A0A" transform="translate(215,181)"/>
<path d="M0 0 C0.66 0.33 1.32 0.66 2 1 C-1.96 4.96 -5.92 8.92 -10 13 C-10 9.28115772 -9.1259934 8.63852271 -6.6875 5.9375 C-5.76517578 4.89916016 -5.76517578 4.89916016 -4.82421875 3.83984375 C-3 2 -3 2 0 0 Z " fill="#646464" transform="translate(95,89)"/>
</svg>
