<?xml version="1.0" encoding="UTF-8"?>
<svg version="1.1" xmlns="http://www.w3.org/2000/svg" width="500" height="500">
<path d="M0 0 C0.99 0.495 0.99 0.495 2 1 C2.47769657 3.42904383 2.82818226 5.7806661 3.11328125 8.234375 C3.30818906 9.76403863 3.50343362 11.29365937 3.69897461 12.82324219 C3.79870575 13.6280603 3.89843689 14.43287842 4.00119019 15.26208496 C8.60025732 56.87490616 8.60025732 56.87490616 31.52734375 90.3203125 C55.5185007 106.61762291 86.06224328 108.25516457 114 112 C110.5761879 114.2825414 107.75926015 114.63022728 103.7890625 115.11328125 C102.3113118 115.30822357 100.83361189 115.50355124 99.35595703 115.69921875 C98.58302307 115.79895996 97.81008911 115.89870117 97.01373291 116.00146484 C57.67181092 120.53967129 57.67181092 120.53967129 25 141 C12.26138232 157.92062608 8.52730785 178.63750479 5.25 199.0625 C5.14308838 199.7286734 5.03617676 200.3948468 4.92602539 201.08120728 C3.80700022 208.12383865 2.78406053 215.11970696 2.33496094 222.23999023 C2.16915527 223.11119507 2.16915527 223.11119507 2 224 C1.34 224.33 0.68 224.66 0 225 C-0.15557373 223.89301758 -0.31114746 222.78603516 -0.47143555 221.64550781 C-5.15379895 173.9269101 -5.15379895 173.9269101 -30 135 C-50.95231867 119.79788885 -81.1808012 116.80929897 -106.171875 114.515625 C-110 114 -110 114 -112 112 C-110.31596069 111.75878418 -110.31596069 111.75878418 -108.59790039 111.51269531 C-104.34547111 110.90151069 -100.09456137 110.28024152 -95.84399414 109.65625 C-94.02048739 109.38991846 -92.19660337 109.12615454 -90.37231445 108.86523438 C-52.4579546 103.85074872 -52.4579546 103.85074872 -21.90625 82.75 C-5.51936471 59.10990319 -2.97693196 27.81431948 0 0 Z " fill="#070404" transform="translate(241,137)"/>
<path d="M0 0 C2.524127 2.524127 2.4635005 3.88594867 2.9296875 7.390625 C3.0829248 8.48632812 3.23616211 9.58203125 3.39404297 10.7109375 C3.55275879 11.87882812 3.71147461 13.04671875 3.875 14.25 C6.99950744 37.97282415 6.99950744 37.97282415 20.83984375 56.6953125 C35.68685378 65.66258438 54.18429628 66.88756543 71 69 C71 69.66 71 70.32 71 71 C69.85337891 71.14248169 69.85337891 71.14248169 68.68359375 71.2878418 C39.72305831 74.23816133 39.72305831 74.23816133 15.25 88.625 C5.98285925 101.04487936 4.0777986 119.06000714 2.4921875 134.05859375 C2 137 2 137 0 140 C-0.13051758 139.15928955 -0.26103516 138.3185791 -0.39550781 137.45239258 C-0.89491863 134.26591539 -1.40297878 131.08095916 -1.91650391 127.89672852 C-2.13502531 126.53104973 -2.35031487 125.164849 -2.56201172 123.7980957 C-5.57709337 102.58003867 -5.57709337 102.58003867 -17.03515625 85.19140625 C-19.28942229 83.59711933 -21.55003108 82.27124824 -24 81 C-24.69222656 80.63390625 -25.38445312 80.2678125 -26.09765625 79.890625 C-39.1051322 73.92599758 -54.90796314 72.6227194 -69 71 C-69 70.34 -69 69.68 -69 69 C-68.26587891 68.90501221 -67.53175781 68.81002441 -66.77539062 68.7121582 C-38.16368204 66.08227879 -38.16368204 66.08227879 -14.203125 51.96875 C-12.59959655 49.71428426 -11.27373083 47.45475341 -10 45 C-9.63390625 44.30777344 -9.2678125 43.61554688 -8.890625 42.90234375 C-2.92599758 29.8948678 -1.6227194 14.09203686 0 0 Z " fill="#070404" transform="translate(342,303)"/>
<path d="M0 0 C0.66 0 1.32 0 2 0 C2.17015625 1.25554688 2.3403125 2.51109375 2.515625 3.8046875 C4.19925726 19.44388694 4.19925726 19.44388694 12.1875 32.4375 C20.8963206 38.92356722 32.57913902 39.41494995 43 41 C40.0391913 43.9608087 36.49089395 43.8214218 32.5 44.375 C19.69711347 46.145483 19.69711347 46.145483 9.5625 53.5625 C4.36608318 61.51082207 3.57815022 70.99948095 2.52734375 80.2265625 C2.35332031 81.14179688 2.17929687 82.05703125 2 83 C1.01 83.495 1.01 83.495 0 84 C-0.15855469 82.76765625 -0.31710937 81.5353125 -0.48046875 80.265625 C-2.23828102 63.6611942 -2.23828102 63.6611942 -10.8125 50 C-16.77632021 46.48186922 -24.28309895 45.41471013 -31 44 C-32.07636719 43.77183594 -33.15273438 43.54367188 -34.26171875 43.30859375 C-36.50461122 42.85105648 -38.74825803 42.41137594 -41 42 C-41 41.67 -41 41.34 -41 41 C-40.410979 40.89977539 -39.82195801 40.79955078 -39.21508789 40.69628906 C-36.49530171 40.2263407 -33.77905131 39.73828689 -31.0625 39.25 C-30.13630859 39.09273437 -29.21011719 38.93546875 -28.25585938 38.7734375 C-20.70547248 37.39582305 -11.84155678 35.58997812 -7.0546875 29.00390625 C-2.36362155 20.09088095 -1.12437014 9.86782745 0 0 Z " fill="#070404" transform="translate(305,57)"/>
<path d="M0 0 C2.32832661 3.79099333 2.72820122 7.87316465 3.375 12.1875 C4.80207312 20.76900267 6.32136939 29.07980961 13.55859375 34.72265625 C19.23740303 37.69380926 25.76105438 38.73801353 32 40 C33.61455078 40.3403125 33.61455078 40.3403125 35.26171875 40.6875 C37.50440204 41.14819386 39.74785586 41.58855059 42 42 C42 42.33 42 42.66 42 43 C41.41621582 43.09498779 40.83243164 43.18997559 40.23095703 43.2878418 C23.47445785 45.13065253 23.47445785 45.13065253 9.7434082 53.515625 C5.63055925 59.36826165 4.45362205 65.55916042 3.1875 72.5 C2.97158203 73.60859375 2.75566406 74.7171875 2.53320312 75.859375 C2.00734758 78.57045247 1.49673271 81.28346306 1 84 C-1.12759257 80.07889515 -1.6769391 76.24048807 -2.3125 71.875 C-3.55844869 64.30439375 -4.87260324 56.86414595 -10.71484375 51.39453125 C-19.39855837 45.33901655 -30.79543735 44.37899495 -41 43 C-38.02909532 40.02909532 -34.44330171 40.17534212 -30.4375 39.625 C-23.7142906 38.61661823 -18.03863525 37.21481301 -12 34 C-10.515 33.505 -10.515 33.505 -9 33 C-7.85959326 31.19978005 -7.85959326 31.19978005 -7 29 C-6.68160156 28.28585937 -6.36320312 27.57171875 -6.03515625 26.8359375 C-2.59768697 18.13872608 -1.33642805 9.20312955 0 0 Z " fill="#070404" transform="translate(129,306)"/>
<path d="M0 0 C1.299375 0.00451172 2.59875 0.00902344 3.9375 0.01367188 C7.12504825 0.0253908 10.31249955 0.04179781 13.5 0.0625 C13.5 1.3825 13.5 2.7025 13.5 4.0625 C8.84785065 4.80984361 4.40132058 5.18186092 -0.30859375 5.16015625 C-1.54931641 5.15693359 -2.79003906 5.15371094 -4.06835938 5.15039062 C-5.34517578 5.14201172 -6.62199219 5.13363281 -7.9375 5.125 C-9.89333008 5.11823242 -9.89333008 5.11823242 -11.88867188 5.11132812 C-15.09249552 5.09959251 -18.29622363 5.08317363 -21.5 5.0625 C-21.83 3.7425 -22.16 2.4225 -22.5 1.0625 C-15.00009325 -0.14013656 -7.5817215 -0.05008251 0 0 Z " fill="#FFFFFF" transform="translate(486.5,494.9375)"/>
</svg>
