<?xml version="1.0" encoding="UTF-8"?>
<svg version="1.1" xmlns="http://www.w3.org/2000/svg" width="500" height="500">
<path d="M0 0 C165 0 330 0 500 0 C500 165 500 330 500 500 C335 500 170 500 0 500 C0 335 0 170 0 0 Z " fill="#FF8920" transform="translate(0,0)"/>
<path d="M0 0 C4.27476899 3.9638767 7.43338825 8.26033619 10.625 13.125 C11.40387573 14.30763428 11.40387573 14.30763428 12.19848633 15.51416016 C33.00956845 47.44236773 48.42478917 81.91316195 48.31567383 120.5925293 C48.31250839 122.93129956 48.33609215 125.26880618 48.36132812 127.60742188 C48.40187796 137.1585444 47.49293199 145.7311351 45 155 C44.79060791 155.78914795 44.58121582 156.5782959 44.36547852 157.39135742 C35.12227721 190.32784731 16.53476302 216.07882917 -13.37402344 232.95996094 C-27.83613597 240.94036917 -43.11917575 246.95564564 -58.40988159 253.12411499 C-87.23845564 264.75409872 -120.03253532 279.33749968 -133.19140625 309.75390625 C-133.86119672 311.45186215 -134.51331246 313.15698976 -135.140625 314.87109375 C-136 317 -136 317 -138 320 C-138.20672534 313.49963642 -137.45150069 307.45715241 -136.3125 301.0625 C-136.04240112 299.54124512 -136.04240112 299.54124512 -135.7668457 297.98925781 C-134.12512955 289.09972603 -131.91135991 280.55310331 -129 272 C-128.74347656 271.24267578 -128.48695313 270.48535156 -128.22265625 269.70507812 C-118.03441234 240.0421766 -102.72274425 213.17349645 -81.12109375 190.296875 C-78.9493004 188.00388169 -78.9493004 188.00388169 -76.94921875 185.40625 C-75.20061717 183.24765566 -73.49160607 181.5333532 -71.375 179.75 C-69.19558043 177.89551208 -67.04363352 176.04112585 -64.9609375 174.078125 C-57.77786757 167.3265469 -49.89679846 161.58935702 -41.9921875 155.71875 C-31.93509023 148.24754519 -22.14410229 140.58262233 -13 132 C-12.32710937 131.40316406 -11.65421875 130.80632812 -10.9609375 130.19140625 C0.47844313 119.59516722 9.15330056 104.40380697 12 89 C12.06688591 87.08438746 12.08531719 85.16664408 12.0625 83.25 C12.05347656 82.26515625 12.04445313 81.2803125 12.03515625 80.265625 C12.02355469 79.51796875 12.01195312 78.7703125 12 78 C11.91363281 78.64324219 11.82726562 79.28648437 11.73828125 79.94921875 C7.61547021 106.46381083 -11.38306227 123.74710615 -32 139 C-32.74475586 139.55187988 -33.48951172 140.10375977 -34.25683594 140.67236328 C-38.31423749 143.6735813 -42.38027081 146.66290081 -46.44921875 149.6484375 C-63.22051865 161.97546474 -79.4188739 175.11154338 -94 190 C-94.78632813 190.78375 -95.57265625 191.5675 -96.3828125 192.375 C-112.14476285 208.18400095 -125.44396773 226.26294983 -134 247 C-134.66 247 -135.32 247 -136 247 C-146.5730609 217.81835193 -152.36495676 184.76702867 -138.859375 155.44921875 C-123.55218769 127.05374313 -95.10879198 111.84487679 -67.62695312 97.20288086 C-53.74752229 89.77869089 -40.24258359 81.94821946 -28 72 C-27.12988281 71.29488281 -26.25976562 70.58976562 -25.36328125 69.86328125 C-14.29760509 60.424412 -7.45668182 49.26461679 -2 36 C-1.63777344 35.18402344 -1.27554688 34.36804688 -0.90234375 33.52734375 C2.84422493 23.64685797 2.07322175 10.23235249 0 0 Z " fill="#FFFEFD" transform="translate(335,106)"/>
<path d="M0 0 C0 3.14834245 -0.79858368 4.99099945 -2.1484375 7.79296875 C-8.48560123 24.21726925 -4.99176625 41.69443388 1.83203125 57.33984375 C5.56902913 65.41217116 10.03501155 72.36338117 16 79 C16.67546875 79.78246094 17.3509375 80.56492187 18.046875 81.37109375 C26.66713232 91.2025916 35.82828257 100.49767612 46.06640625 108.640625 C85.47246251 140.33337864 85.47246251 140.33337864 88 152 C87.24082275 152.39678955 86.48164551 152.7935791 85.69946289 153.20239258 C60.82582559 165.97421454 60.82582559 165.97421454 38 182 C33.71103631 180.45756526 31.56477314 177.20563013 28.9375 173.6875 C27.95915376 172.40852985 26.97863011 171.13122277 25.99609375 169.85546875 C25.49835449 169.20884277 25.00061523 168.5622168 24.48779297 167.89599609 C22.23774752 165.02860966 19.87563483 162.26346746 17.5 159.5 C12.26311638 153.37818002 7.26802009 147.08805955 2.33642578 140.71875 C1.03451761 139.0443924 -0.27985186 137.38061169 -1.59765625 135.71875 C-14.51265257 119.34141442 -25.83392586 102.45788607 -26.625 81 C-26.68300781 79.69482422 -26.68300781 79.69482422 -26.7421875 78.36328125 C-26.83540887 76.24249514 -26.91874136 74.12127815 -27 72 C-32.67828612 86.68600908 -28.26660477 103.44559264 -22.16796875 117.3046875 C-18.32985785 125.53182052 -13.65411386 132.88496126 -8 140 C-7.39800781 140.78117188 -6.79601562 141.56234375 -6.17578125 142.3671875 C-0.61043996 149.48429062 5.37233069 156.2482321 11.30664062 163.05664062 C14.04447267 166.19867395 16.77643651 169.34559031 19.5 172.5 C19.97985352 173.05075195 20.45970703 173.60150391 20.95410156 174.16894531 C24.21910513 177.95708368 27.14012338 181.89669877 30 186 C28.42291828 189.75871144 26.04470595 192.25305876 23.25 195.1875 C6.89434562 212.87974549 2.71867987 233.53138509 2 257 C-34.16032629 234.71343155 -62.51205189 208.64330552 -73 166 C-77.3655354 147.22593584 -76.52763267 125.67385729 -72 107 C-71.82259277 106.24299805 -71.64518555 105.48599609 -71.46240234 104.70605469 C-66.41930009 83.94335888 -56.72150201 64.12984157 -44 47 C-43.60103516 46.44989258 -43.20207031 45.89978516 -42.79101562 45.33300781 C-34.1230895 33.40588563 -24.00242412 22.93827128 -13.625 12.5 C-12.95903809 11.82928467 -12.29307617 11.15856934 -11.60693359 10.4675293 C-7.88732613 6.76054176 -4.09113989 3.29317762 0 0 Z " fill="#FFFEFD" transform="translate(176,38)"/>
<path d="M0 0 C0.33 0 0.66 0 1 0 C2.22660927 37.20714774 -8.5449752 73.87989445 -33.88671875 101.7578125 C-55.79801784 124.97898894 -86.55226785 136.35578038 -115.55859375 148 C-135.20894338 155.88958527 -154.56446866 164.38601911 -171 178 C-172.39798828 179.13501953 -172.39798828 179.13501953 -173.82421875 180.29296875 C-185.73902873 190.47954967 -192.9614926 202.72352886 -199 217 C-199.33 217 -199.66 217 -200 217 C-200.61298957 196.95013266 -188.80346486 176.80923594 -175.52734375 162.5390625 C-166.33684569 153.30595008 -156.50656936 146.88501995 -145 141 C-144.27329102 140.62439941 -143.54658203 140.24879883 -142.79785156 139.86181641 C-131.07514393 133.86868983 -118.98768066 128.9406049 -106.75 124.125 C-81.05852082 114.00143301 -56.97179858 103.48616214 -37 84 C-36.35804688 83.41992188 -35.71609375 82.83984375 -35.0546875 82.2421875 C-12.55897467 61.42057423 -4.13623422 29.16156511 0 0 Z " fill="#FFFCF9" transform="translate(402,241)"/>
<path d="M0 0 C0.33 0 0.66 0 1 0 C1 4.95 1 9.9 1 15 C0.67 15 0.34 15 0 15 C-0.2165625 13.63875 -0.2165625 13.63875 -0.4375 12.25 C-0.88795806 9.16447382 -0.88795806 9.16447382 -1.6875 6.9375 C-2.1283644 4.20414069 -1.15923283 2.45484598 0 0 Z " fill="#FF9334" transform="translate(149,107)"/>
</svg>
